<?xml version="1.0" standalone="no"?>
<!DOCTYPE svg PUBLIC "-//W3C//DTD SVG 20010904//EN"
 "http://www.w3.org/TR/2001/REC-SVG-20010904/DTD/svg10.dtd">
<svg version="1.0" xmlns="http://www.w3.org/2000/svg"
 width="520.000000pt" height="520.000000pt" viewBox="0 0 520.000000 520.000000"
 preserveAspectRatio="xMidYMid meet">
<metadata>
Created by potrace 1.11, written by Peter Selinger 2001-2013
</metadata>
<g transform="translate(0.000000,520.000000) scale(0.100000,-0.100000)"
fill="#000000" stroke="none">
<path d="M96 5104 c-14 -14 -16 -255 -16 -2504 0 -2253 1 -2490 16 -2504 14
-14 102 -16 861 -14 l846 3 23 100 c12 55 24 114 27 130 3 17 8 42 12 58 6 22
4 27 -11 28 -11 0 -32 2 -49 3 -140 15 -170 18 -175 21 -3 2 -21 6 -40 9 -66
11 -85 16 -169 41 -377 113 -562 371 -562 785 0 96 5 147 27 288 9 60 45 216
50 222 6 5 1172 8 1190 3 10 -4 3 -45 -30 -178 -38 -151 -18 -301 48 -358 48
-43 78 -52 176 -51 78 0 105 4 148 23 212 95 329 564 176 707 -35 34 -181 127
-259 167 -38 20 -155 77 -260 127 -104 50 -223 112 -265 137 -305 189 -459
376 -532 652 -25 96 -31 294 -12 412 14 87 80 360 94 388 4 9 27 66 50 126
142 369 390 649 705 795 164 77 284 114 435 135 60 8 167 19 177 17 7 -2 16 5
21 15 8 14 52 211 52 229 0 2 -616 4 -1369 4 -1232 0 -1371 -2 -1385 -16z"/>
<path d="M3336 5112 c-3 -5 -7 -19 -10 -33 -2 -13 -11 -58 -20 -99 -23 -110
-26 -105 47 -108 34 -1 71 -4 82 -6 11 -2 45 -7 75 -11 468 -58 750 -278 820
-640 9 -46 6 -357 -4 -415 -2 -14 -7 -45 -10 -70 -4 -25 -9 -52 -11 -60 -2 -8
-7 -31 -10 -50 -3 -19 -8 -42 -10 -50 -4 -13 -75 -15 -585 -15 -384 0 -580 3
-580 10 0 5 10 53 21 105 36 162 31 282 -15 351 -28 43 -99 72 -177 71 -90 0
-157 -24 -215 -75 -99 -87 -150 -202 -159 -356 -9 -165 102 -305 345 -434 36
-19 108 -58 160 -87 52 -28 124 -68 160 -87 153 -83 180 -99 267 -153 312
-196 467 -382 524 -630 28 -121 29 -217 6 -405 -11 -88 -61 -288 -107 -425
-58 -177 -113 -295 -195 -420 -215 -327 -500 -501 -950 -579 -58 -10 -74 -12
-195 -26 -62 -7 -148 -13 -201 -14 l-35 -1 -29 -138 c-15 -75 -30 -147 -33
-160 l-4 -22 1400 0 c1260 0 1402 2 1416 16 14 14 16 255 16 2504 0 2249 -2
2490 -16 2504 -14 14 -108 16 -889 16 -481 0 -876 -4 -879 -8z"/>
</g>
</svg>
